<svg width="27" height="26" viewBox="0 0 27 26" fill="none" xmlns="http://www.w3.org/2000/svg">
<path d="M13.2695 16.25C16.4107 16.25 18.957 13.7036 18.957 10.5625C18.957 7.42138 16.4107 4.875 13.2695 4.875C10.1284 4.875 7.58203 7.42138 7.58203 10.5625C7.58203 13.7036 10.1284 16.25 13.2695 16.25Z" stroke="white" stroke-width="0.866667" stroke-linecap="round" stroke-linejoin="round"/>
<path d="M20.7584 22.6158C19.7772 21.6284 18.6103 20.8448 17.3251 20.31C16.0398 19.7753 14.6614 19.5 13.2694 19.5C11.8773 19.5 10.4989 19.7753 9.21366 20.31C7.92838 20.8448 6.76154 21.6284 5.78027 22.6158" stroke="white" stroke-width="0.866667" stroke-linecap="round" stroke-linejoin="round"/>
<path d="M13.2695 25.1875C20.0005 25.1875 25.457 19.731 25.457 13C25.457 6.26903 20.0005 0.8125 13.2695 0.8125C6.53856 0.8125 1.08203 6.26903 1.08203 13C1.08203 19.731 6.53856 25.1875 13.2695 25.1875Z" stroke="white" stroke-width="0.866667" stroke-linecap="round" stroke-linejoin="round"/>
</svg>
